<?xml version="1.0" encoding="us-ascii" standalone="no"?><svg xmlns="http://www.w3.org/2000/svg" xmlns:xlink="http://www.w3.org/1999/xlink" contentStyleType="text/css" height="472px" preserveAspectRatio="none" style="width:651px;height:472px;background:#FFFFFF;" version="1.1" viewBox="0 0 651 472" width="651px" zoomAndPan="magnify"><defs/><g><text fill="#000000" font-family="sans-serif" font-size="14" font-weight="bold" lengthAdjust="spacing" textLength="333" x="158.5" y="28.5352">Scenario 2 - Provider Credentials from Conjur</text><line style="stroke:#181818;stroke-width:0.5;stroke-dasharray:5.0,5.0;" x1="112" x2="112" y1="90.4648" y2="420.5703"/><line style="stroke:#181818;stroke-width:0.5;stroke-dasharray:5.0,5.0;" x1="274.5" x2="274.5" y1="90.4648" y2="420.5703"/><line style="stroke:#181818;stroke-width:0.5;stroke-dasharray:5.0,5.0;" x1="538.5" x2="538.5" y1="90.4648" y2="420.5703"/><rect fill="#E2E2F0" height="46.9766" rx="2.5" ry="2.5" style="stroke:#181818;stroke-width:0.5;" width="142" x="41" y="42.4883"/><text fill="#000000" font-family="sans-serif" font-size="14" lengthAdjust="spacing" textLength="114" x="55" y="63.0234">Provision Engine</text><text fill="#000000" font-family="sans-serif" font-size="14" lengthAdjust="spacing" textLength="128" x="48" y="79.5117">(Ex: in-house app)</text><rect fill="#E2E2F0" height="46.9766" rx="2.5" ry="2.5" style="stroke:#181818;stroke-width:0.5;" width="142" x="41" y="419.5703"/><text fill="#000000" font-family="sans-serif" font-size="14" lengthAdjust="spacing" textLength="114" x="55" y="440.1055">Provision Engine</text><text fill="#000000" font-family="sans-serif" font-size="14" lengthAdjust="spacing" textLength="128" x="48" y="456.5938">(Ex: in-house app)</text><rect fill="#E2E2F0" height="46.9766" rx="2.5" ry="2.5" style="stroke:#181818;stroke-width:0.5;" width="119" x="215.5" y="42.4883"/><text fill="#000000" font-family="sans-serif" font-size="14" lengthAdjust="spacing" textLength="77" x="236.5" y="63.0234">Provisioner</text><text fill="#000000" font-family="sans-serif" font-size="14" lengthAdjust="spacing" textLength="105" x="222.5" y="79.5117">(Ex: Terraform)</text><rect fill="#E2E2F0" height="46.9766" rx="2.5" ry="2.5" style="stroke:#181818;stroke-width:0.5;" width="119" x="215.5" y="419.5703"/><text fill="#000000" font-family="sans-serif" font-size="14" lengthAdjust="spacing" textLength="77" x="236.5" y="440.1055">Provisioner</text><text fill="#000000" font-family="sans-serif" font-size="14" lengthAdjust="spacing" textLength="105" x="222.5" y="456.5938">(Ex: Terraform)</text><rect fill="#E2E2F0" height="46.9766" rx="2.5" ry="2.5" style="stroke:#181818;stroke-width:0.5;" width="79" x="499.5" y="42.4883"/><text fill="#000000" font-family="sans-serif" font-size="14" lengthAdjust="spacing" textLength="57" x="510.5" y="63.0234">Provider</text><text fill="#000000" font-family="sans-serif" font-size="14" lengthAdjust="spacing" textLength="65" x="506.5" y="79.5117">(Ex: AWS)</text><rect fill="#E2E2F0" height="46.9766" rx="2.5" ry="2.5" style="stroke:#181818;stroke-width:0.5;" width="79" x="499.5" y="419.5703"/><text fill="#000000" font-family="sans-serif" font-size="14" lengthAdjust="spacing" textLength="57" x="510.5" y="440.1055">Provider</text><text fill="#000000" font-family="sans-serif" font-size="14" lengthAdjust="spacing" textLength="65" x="506.5" y="456.5938">(Ex: AWS)</text><path d="M5,105.4648 L5,130.4648 L220,130.4648 L220,115.4648 L210,105.4648 L5,105.4648 " fill="#FFAAAA" style="stroke:#181818;stroke-width:0.5;"/><path d="M210,105.4648 L210,115.4648 L220,115.4648 L210,105.4648 " fill="#FFAAAA" style="stroke:#181818;stroke-width:0.5;"/><text fill="#000000" font-family="sans-serif" font-size="13" lengthAdjust="spacing" textLength="194" x="11" y="123.0332">Use "authn-iam" Authenticator</text><line style="stroke:#181818;stroke-width:1.0;" x1="112" x2="154" y1="172.3965" y2="172.3965"/><line style="stroke:#181818;stroke-width:1.0;" x1="154" x2="154" y1="172.3965" y2="185.3965"/><line style="stroke:#181818;stroke-width:1.0;" x1="113" x2="154" y1="185.3965" y2="185.3965"/><polygon fill="#181818" points="123,181.3965,113,185.3965,123,189.3965,119,185.3965" style="stroke:#181818;stroke-width:1.0;"/><text fill="#000000" font-family="sans-serif" font-size="13" lengthAdjust="spacing" textLength="123" x="119" y="152.3438">Read Provider creds</text><text fill="#000000" font-family="sans-serif" font-size="13" font-weight="bold" lengthAdjust="spacing" textLength="81" x="119" y="167.6543">from Conjur</text><polygon fill="#181818" points="263,210.707,273,214.707,263,218.707,267,214.707" style="stroke:#181818;stroke-width:1.0;"/><line style="stroke:#181818;stroke-width:1.0;" x1="112" x2="269" y1="214.707" y2="214.707"/><text fill="#000000" font-family="sans-serif" font-size="13" lengthAdjust="spacing" textLength="121" x="119" y="209.9648">Pass Provider creds</text><polygon fill="#181818" points="527,240.0176,537,244.0176,527,248.0176,531,244.0176" style="stroke:#181818;stroke-width:1.0;"/><line style="stroke:#181818;stroke-width:1.0;" x1="275" x2="533" y1="244.0176" y2="244.0176"/><text fill="#000000" font-family="sans-serif" font-size="13" lengthAdjust="spacing" textLength="240" x="282" y="239.2754">(with Provider creds) Request resource</text><line style="stroke:#181818;stroke-width:1.0;" x1="539" x2="581" y1="273.3281" y2="273.3281"/><line style="stroke:#181818;stroke-width:1.0;" x1="581" x2="581" y1="273.3281" y2="286.3281"/><line style="stroke:#181818;stroke-width:1.0;" x1="540" x2="581" y1="286.3281" y2="286.3281"/><polygon fill="#181818" points="550,282.3281,540,286.3281,550,290.3281,546,286.3281" style="stroke:#181818;stroke-width:1.0;"/><text fill="#000000" font-family="sans-serif" font-size="13" lengthAdjust="spacing" textLength="98" x="546" y="268.5859">Create resource</text><polygon fill="#181818" points="286,311.6387,276,315.6387,286,319.6387,282,315.6387" style="stroke:#181818;stroke-width:1.0;"/><line style="stroke:#181818;stroke-width:1.0;" x1="280" x2="538" y1="315.6387" y2="315.6387"/><text fill="#000000" font-family="sans-serif" font-size="13" lengthAdjust="spacing" textLength="139" x="292" y="310.8965">Send Resource Details</text><polygon fill="#181818" points="123,340.9492,113,344.9492,123,348.9492,119,344.9492" style="stroke:#181818;stroke-width:1.0;"/><line style="stroke:#181818;stroke-width:1.0;" x1="117" x2="274" y1="344.9492" y2="344.9492"/><text fill="#000000" font-family="sans-serif" font-size="13" lengthAdjust="spacing" textLength="139" x="129" y="340.207">Send Resource Details</text><line style="stroke:#181818;stroke-width:1.0;" x1="112" x2="154" y1="389.5703" y2="389.5703"/><line style="stroke:#181818;stroke-width:1.0;" x1="154" x2="154" y1="389.5703" y2="402.5703"/><line style="stroke:#181818;stroke-width:1.0;" x1="113" x2="154" y1="402.5703" y2="402.5703"/><polygon fill="#181818" points="123,398.5703,113,402.5703,123,406.5703,119,402.5703" style="stroke:#181818;stroke-width:1.0;"/><text fill="#000000" font-family="sans-serif" font-size="13" lengthAdjust="spacing" textLength="124" x="119" y="369.5176">Store New Resource</text><text fill="#000000" font-family="sans-serif" font-size="13" lengthAdjust="spacing" textLength="121" x="119" y="384.8281">details in PAS Vault</text><!--SRC=[TPBBRi8m44Nt-OfHke55LAdB225559OLQlhOi1dYWRXAnkdOWNv-XrSQQCZAYiuPNryxs50Hv0KnYdNm10ainUsi8O6Pa24E5YiF6t4rp1n_jH8rAC4Mja4EHtZEMyi4w24-kjuwXjFF5O_cFobOJahNUcMQPXp_6t0qTCEh2IHd-Or4SEEa7Z9DNpETattcIaVi0e7RATFB-R1OPFgbyAw1Ocn3oOd5EePCbuVp5XYSH3qZcVRy55u9pT_kXRRaLpnPJtiTJHxNqu49vuEbi4JlRqP4_IOkl3d0exqDvGqzrXJVBVa0GjwrKb3K0LUoNY9g2VUfIwISsEZG4mRF5D1MWw4kDTmNXclBjLM25zftqehDoT870iiiXmzig_0B]--></g></svg>