<?xml version="1.0" encoding="us-ascii" standalone="no"?><svg xmlns="http://www.w3.org/2000/svg" xmlns:xlink="http://www.w3.org/1999/xlink" contentStyleType="text/css" height="437px" preserveAspectRatio="none" style="width:615px;height:437px;background:#FFFFFF;" version="1.1" viewBox="0 0 615 437" width="615px" zoomAndPan="magnify"><defs/><g><text fill="#000000" font-family="sans-serif" font-size="14" font-weight="bold" lengthAdjust="spacing" textLength="312" x="151" y="28.5352">Scenario 1 -- Provider Credentials in a File</text><line style="stroke:#181818;stroke-width:0.5;stroke-dasharray:5.0,5.0;" x1="76" x2="76" y1="90.4648" y2="385.2598"/><line style="stroke:#181818;stroke-width:0.5;stroke-dasharray:5.0,5.0;" x1="238.5" x2="238.5" y1="90.4648" y2="385.2598"/><line style="stroke:#181818;stroke-width:0.5;stroke-dasharray:5.0,5.0;" x1="502.5" x2="502.5" y1="90.4648" y2="385.2598"/><rect fill="#E2E2F0" height="46.9766" rx="2.5" ry="2.5" style="stroke:#181818;stroke-width:0.5;" width="142" x="5" y="42.4883"/><text fill="#000000" font-family="sans-serif" font-size="14" lengthAdjust="spacing" textLength="114" x="19" y="63.0234">Provision Engine</text><text fill="#000000" font-family="sans-serif" font-size="14" lengthAdjust="spacing" textLength="128" x="12" y="79.5117">(Ex: in-house app)</text><rect fill="#E2E2F0" height="46.9766" rx="2.5" ry="2.5" style="stroke:#181818;stroke-width:0.5;" width="142" x="5" y="384.2598"/><text fill="#000000" font-family="sans-serif" font-size="14" lengthAdjust="spacing" textLength="114" x="19" y="404.7949">Provision Engine</text><text fill="#000000" font-family="sans-serif" font-size="14" lengthAdjust="spacing" textLength="128" x="12" y="421.2832">(Ex: in-house app)</text><rect fill="#E2E2F0" height="46.9766" rx="2.5" ry="2.5" style="stroke:#181818;stroke-width:0.5;" width="119" x="179.5" y="42.4883"/><text fill="#000000" font-family="sans-serif" font-size="14" lengthAdjust="spacing" textLength="77" x="200.5" y="63.0234">Provisioner</text><text fill="#000000" font-family="sans-serif" font-size="14" lengthAdjust="spacing" textLength="105" x="186.5" y="79.5117">(Ex: Terraform)</text><rect fill="#E2E2F0" height="46.9766" rx="2.5" ry="2.5" style="stroke:#181818;stroke-width:0.5;" width="119" x="179.5" y="384.2598"/><text fill="#000000" font-family="sans-serif" font-size="14" lengthAdjust="spacing" textLength="77" x="200.5" y="404.7949">Provisioner</text><text fill="#000000" font-family="sans-serif" font-size="14" lengthAdjust="spacing" textLength="105" x="186.5" y="421.2832">(Ex: Terraform)</text><rect fill="#E2E2F0" height="46.9766" rx="2.5" ry="2.5" style="stroke:#181818;stroke-width:0.5;" width="79" x="463.5" y="42.4883"/><text fill="#000000" font-family="sans-serif" font-size="14" lengthAdjust="spacing" textLength="57" x="474.5" y="63.0234">Provider</text><text fill="#000000" font-family="sans-serif" font-size="14" lengthAdjust="spacing" textLength="65" x="470.5" y="79.5117">(Ex: AWS)</text><rect fill="#E2E2F0" height="46.9766" rx="2.5" ry="2.5" style="stroke:#181818;stroke-width:0.5;" width="79" x="463.5" y="384.2598"/><text fill="#000000" font-family="sans-serif" font-size="14" lengthAdjust="spacing" textLength="57" x="474.5" y="404.7949">Provider</text><text fill="#000000" font-family="sans-serif" font-size="14" lengthAdjust="spacing" textLength="65" x="470.5" y="421.2832">(Ex: AWS)</text><line style="stroke:#181818;stroke-width:1.0;" x1="76" x2="118" y1="137.0859" y2="137.0859"/><line style="stroke:#181818;stroke-width:1.0;" x1="118" x2="118" y1="137.0859" y2="150.0859"/><line style="stroke:#181818;stroke-width:1.0;" x1="77" x2="118" y1="150.0859" y2="150.0859"/><polygon fill="#181818" points="87,146.0859,77,150.0859,87,154.0859,83,150.0859" style="stroke:#181818;stroke-width:1.0;"/><text fill="#000000" font-family="sans-serif" font-size="13" lengthAdjust="spacing" textLength="123" x="83" y="117.0332">Read Provider creds</text><text fill="#000000" font-family="sans-serif" font-size="13" font-weight="bold" lengthAdjust="spacing" textLength="69" x="83" y="132.3438">from a file</text><polygon fill="#181818" points="227,175.3965,237,179.3965,227,183.3965,231,179.3965" style="stroke:#181818;stroke-width:1.0;"/><line style="stroke:#181818;stroke-width:1.0;" x1="76" x2="233" y1="179.3965" y2="179.3965"/><text fill="#000000" font-family="sans-serif" font-size="13" lengthAdjust="spacing" textLength="121" x="83" y="174.6543">Pass Provider creds</text><polygon fill="#181818" points="491,204.707,501,208.707,491,212.707,495,208.707" style="stroke:#181818;stroke-width:1.0;"/><line style="stroke:#181818;stroke-width:1.0;" x1="239" x2="497" y1="208.707" y2="208.707"/><text fill="#000000" font-family="sans-serif" font-size="13" lengthAdjust="spacing" textLength="240" x="246" y="203.9648">(with Provider creds) Request resource</text><line style="stroke:#181818;stroke-width:1.0;" x1="503" x2="545" y1="238.0176" y2="238.0176"/><line style="stroke:#181818;stroke-width:1.0;" x1="545" x2="545" y1="238.0176" y2="251.0176"/><line style="stroke:#181818;stroke-width:1.0;" x1="504" x2="545" y1="251.0176" y2="251.0176"/><polygon fill="#181818" points="514,247.0176,504,251.0176,514,255.0176,510,251.0176" style="stroke:#181818;stroke-width:1.0;"/><text fill="#000000" font-family="sans-serif" font-size="13" lengthAdjust="spacing" textLength="98" x="510" y="233.2754">Create resource</text><polygon fill="#181818" points="250,276.3281,240,280.3281,250,284.3281,246,280.3281" style="stroke:#181818;stroke-width:1.0;"/><line style="stroke:#181818;stroke-width:1.0;" x1="244" x2="502" y1="280.3281" y2="280.3281"/><text fill="#000000" font-family="sans-serif" font-size="13" lengthAdjust="spacing" textLength="139" x="256" y="275.5859">Send Resource Details</text><polygon fill="#181818" points="87,305.6387,77,309.6387,87,313.6387,83,309.6387" style="stroke:#181818;stroke-width:1.0;"/><line style="stroke:#181818;stroke-width:1.0;" x1="81" x2="238" y1="309.6387" y2="309.6387"/><text fill="#000000" font-family="sans-serif" font-size="13" lengthAdjust="spacing" textLength="139" x="93" y="304.8965">Send Resource Details</text><line style="stroke:#181818;stroke-width:1.0;" x1="76" x2="118" y1="354.2598" y2="354.2598"/><line style="stroke:#181818;stroke-width:1.0;" x1="118" x2="118" y1="354.2598" y2="367.2598"/><line style="stroke:#181818;stroke-width:1.0;" x1="77" x2="118" y1="367.2598" y2="367.2598"/><polygon fill="#181818" points="87,363.2598,77,367.2598,87,371.2598,83,367.2598" style="stroke:#181818;stroke-width:1.0;"/><text fill="#000000" font-family="sans-serif" font-size="13" lengthAdjust="spacing" textLength="124" x="83" y="334.207">Store New Resource</text><text fill="#000000" font-family="sans-serif" font-size="13" lengthAdjust="spacing" textLength="121" x="83" y="349.5176">details in PAS Vault</text><!--SRC=[VPB1JeD048RlFCMaf_P0Z5VIa3JQ7WqHenSkKtQmaz1Pd5siZ-yM2jAANZVVz-y_i-lPrmHvIOBA5kuXZY5J-yc651wK38bdh1sm0CAEQueQLCybDoY-GxVopaA03XQTwTWAz8U5BBTVIN3ZWsrTO9fcjVWLq1dXkgi4qelyGgfOMJtEcMQgcT7PlEM1ZYRjudJIDO5dGlEJK8OvNI7hVLgfFOOvgp3d-cwVpYHSoYMGeNCt4T5qce4tPtXvOd-ueLUXnKTBpeEIiwsM58t0bHoU0JtzGmsLSX8JGdiC7iaZrxEbXZNyBSolBVTM2PxeD4g5cDuwVv1iayChjhN_1W00]--></g></svg>