<?xml version="1.0" encoding="us-ascii" standalone="no"?><svg xmlns="http://www.w3.org/2000/svg" xmlns:xlink="http://www.w3.org/1999/xlink" contentStyleType="text/css" height="513px" preserveAspectRatio="none" style="width:999px;height:513px;background:#FFFFFF;" version="1.1" viewBox="0 0 999 513" width="999px" zoomAndPan="magnify"><defs/><g><text fill="#000000" font-family="sans-serif" font-size="14" font-weight="bold" lengthAdjust="spacing" textLength="302" x="341.5" y="23.5352">Toolshed Simulated Architecture Diagram</text><!--entity AppDev--><g id="elem_AppDev"><ellipse cx="56.5" cy="285.9883" fill="#F1F1F1" rx="8" ry="8" style="stroke:#181818;stroke-width:0.5;"/><path d="M56.5,293.9883 L56.5,320.9883 M43.5,301.9883 L69.5,301.9883 M56.5,320.9883 L43.5,335.9883 M56.5,320.9883 L69.5,335.9883 " fill="none" style="stroke:#181818;stroke-width:0.5;"/><text fill="#000000" font-family="sans-serif" font-size="14" lengthAdjust="spacing" textLength="101" x="6" y="351.0234">App Developer</text></g><!--entity Toolshed--><g id="elem_Toolshed"><rect fill="#F1F1F1" height="46.4883" rx="2.5" ry="2.5" style="stroke:#181818;stroke-width:0.5;" width="104" x="141.5" y="292.4883"/><rect fill="#F1F1F1" height="10" style="stroke:#181818;stroke-width:0.5;" width="15" x="225.5" y="297.4883"/><rect fill="#F1F1F1" height="2" style="stroke:#181818;stroke-width:0.5;" width="4" x="223.5" y="299.4883"/><rect fill="#F1F1F1" height="2" style="stroke:#181818;stroke-width:0.5;" width="4" x="223.5" y="303.4883"/><text fill="#000000" font-family="sans-serif" font-size="14" lengthAdjust="spacing" textLength="64" x="156.5" y="326.0234">Toolshed</text></g><!--entity ProvEngine--><g id="elem_ProvEngine"><rect fill="#F1F1F1" height="46.4883" rx="2.5" ry="2.5" style="stroke:#181818;stroke-width:0.5;" width="117" x="389" y="292.4883"/><rect fill="#F1F1F1" height="10" style="stroke:#181818;stroke-width:0.5;" width="15" x="486" y="297.4883"/><rect fill="#F1F1F1" height="2" style="stroke:#181818;stroke-width:0.5;" width="4" x="484" y="299.4883"/><rect fill="#F1F1F1" height="2" style="stroke:#181818;stroke-width:0.5;" width="4" x="484" y="303.4883"/><text fill="#000000" font-family="sans-serif" font-size="14" lengthAdjust="spacing" textLength="77" x="404" y="326.0234">ProvEngine</text></g><!--entity Provider Creds\n(Conjur Cloud)--><g id="elem_Provider Creds\n(Conjur Cloud)"><rect fill="#F1F1F1" height="62.9766" rx="2.5" ry="2.5" style="stroke:#181818;stroke-width:0.5;" width="142" x="464.5" y="74.0083"/><rect fill="#F1F1F1" height="10" style="stroke:#181818;stroke-width:0.5;" width="15" x="586.5" y="79.0083"/><rect fill="#F1F1F1" height="2" style="stroke:#181818;stroke-width:0.5;" width="4" x="584.5" y="81.0083"/><rect fill="#F1F1F1" height="2" style="stroke:#181818;stroke-width:0.5;" width="4" x="584.5" y="85.0083"/><text fill="#000000" font-family="sans-serif" font-size="14" lengthAdjust="spacing" textLength="101" x="479.5" y="107.5434">Provider Creds</text><text fill="#000000" font-family="sans-serif" font-size="14" lengthAdjust="spacing" textLength="102" x="479.5" y="124.0317">(Conjur Cloud)</text></g><!--entity Provider Creds\n(Local FIle)--><g id="elem_Provider Creds\n(Local FIle)"><rect fill="#F1F1F1" height="62.9766" rx="2.5" ry="2.5" style="stroke:#181818;stroke-width:0.5;" width="141" x="289" y="74.0083"/><rect fill="#F1F1F1" height="10" style="stroke:#181818;stroke-width:0.5;" width="15" x="410" y="79.0083"/><rect fill="#F1F1F1" height="2" style="stroke:#181818;stroke-width:0.5;" width="4" x="408" y="81.0083"/><rect fill="#F1F1F1" height="2" style="stroke:#181818;stroke-width:0.5;" width="4" x="408" y="85.0083"/><text fill="#000000" font-family="sans-serif" font-size="14" lengthAdjust="spacing" textLength="101" x="304" y="107.5434">Provider Creds</text><text fill="#000000" font-family="sans-serif" font-size="14" lengthAdjust="spacing" textLength="73" x="304" y="124.0317">(Local FIle)</text></g><!--entity Provider--><g id="elem_Provider"><rect fill="#F1F1F1" height="46.4883" rx="2.5" ry="2.5" style="stroke:#181818;stroke-width:0.5;" width="97" x="326" y="460.9783"/><rect fill="#F1F1F1" height="10" style="stroke:#181818;stroke-width:0.5;" width="15" x="403" y="465.9783"/><rect fill="#F1F1F1" height="2" style="stroke:#181818;stroke-width:0.5;" width="4" x="401" y="467.9783"/><rect fill="#F1F1F1" height="2" style="stroke:#181818;stroke-width:0.5;" width="4" x="401" y="471.9783"/><text fill="#000000" font-family="sans-serif" font-size="14" lengthAdjust="spacing" textLength="57" x="341" y="494.5134">Provider</text></g><!--entity PASVault--><g id="elem_PASVault"><rect fill="#F1F1F1" height="46.4883" rx="2.5" ry="2.5" style="stroke:#181818;stroke-width:0.5;" width="101" x="496" y="460.9783"/><rect fill="#F1F1F1" height="10" style="stroke:#181818;stroke-width:0.5;" width="15" x="577" y="465.9783"/><rect fill="#F1F1F1" height="2" style="stroke:#181818;stroke-width:0.5;" width="4" x="575" y="467.9783"/><rect fill="#F1F1F1" height="2" style="stroke:#181818;stroke-width:0.5;" width="4" x="575" y="471.9783"/><text fill="#000000" font-family="sans-serif" font-size="14" lengthAdjust="spacing" textLength="61" x="511" y="494.5134">PASVault</text></g><rect fill="#F1F1F1" height="122.9297" style="stroke:#181818;stroke-width:0.5;" width="343" x="649" y="44.4883"/><text fill="#000000" font-family="sans-serif" font-size="14" lengthAdjust="spacing" textLength="50" x="795.5" y="60.0234">Legend</text><line style="stroke:#181818;stroke-width:1.0;" x1="736" x2="736" y1="64.9766" y2="167.418"/><line style="stroke:#181818;stroke-width:1.0;" x1="649" x2="992" y1="64.9766" y2="64.9766"/><text fill="#000000" font-family="sans-serif" font-size="14" lengthAdjust="spacing" textLength="64" x="654" y="80.5117">Toolshed</text><text fill="#000000" font-family="sans-serif" font-size="14" lengthAdjust="spacing" textLength="182" x="741" y="80.5117">ITSM App
(Ex: ServiceNow)</text><line style="stroke:#181818;stroke-width:1.0;" x1="649" x2="992" y1="85.4648" y2="85.4648"/><text fill="#000000" font-family="sans-serif" font-size="14" lengthAdjust="spacing" textLength="77" x="654" y="101">ProvEngine</text><text fill="#000000" font-family="sans-serif" font-size="14" lengthAdjust="spacing" textLength="246" x="741" y="101">Provision Engine
(Ex: in-house app)</text><line style="stroke:#181818;stroke-width:1.0;" x1="649" x2="992" y1="105.9531" y2="105.9531"/><text fill="#000000" font-family="sans-serif" font-size="14" lengthAdjust="spacing" textLength="77" x="654" y="121.4883">Provisioner</text><text fill="#000000" font-family="sans-serif" font-size="14" lengthAdjust="spacing" textLength="186" x="741" y="121.4883">Provisioner
(Ex: Terraform)</text><line style="stroke:#181818;stroke-width:1.0;" x1="649" x2="992" y1="126.4414" y2="126.4414"/><text fill="#000000" font-family="sans-serif" font-size="14" lengthAdjust="spacing" textLength="57" x="654" y="141.9766">Provider</text><text fill="#000000" font-family="sans-serif" font-size="14" lengthAdjust="spacing" textLength="126" x="741" y="141.9766">Provider
(Ex: AWS)</text><line style="stroke:#181818;stroke-width:1.0;" x1="649" x2="992" y1="146.9297" y2="146.9297"/><text fill="#000000" font-family="sans-serif" font-size="14" lengthAdjust="spacing" textLength="61" x="654" y="162.4648">PASVault</text><text fill="#000000" font-family="sans-serif" font-size="14" lengthAdjust="spacing" textLength="65" x="741" y="162.4648">PAS Vault</text><!--link AppDev to Toolshed--><g id="link_AppDev_Toolshed"><path d="M107.34,315.7383 C116.55,315.7383 125.75,315.7383 134.96,315.7383 " fill="none" id="AppDev-to-Toolshed" style="stroke:#181818;stroke-width:1.0;"/><polygon fill="#181818" points="139.82,315.7383,130.82,311.7383,134.82,315.7383,130.82,319.7383,139.82,315.7383" style="stroke:#181818;stroke-width:1.0;"/></g><!--link Toolshed to ProvEngine--><g id="link_Toolshed_ProvEngine"><path d="M245.82,315.7383 C285.33,315.7383 339.79,315.7383 382.16,315.7383 " fill="none" id="Toolshed-to-ProvEngine" style="stroke:#181818;stroke-width:1.0;"/><polygon fill="#181818" points="387.07,315.7383,378.07,311.7383,382.07,315.7383,378.07,319.7383,387.07,315.7383" style="stroke:#181818;stroke-width:1.0;"/><text fill="#000000" font-family="sans-serif" font-size="13" lengthAdjust="spacing" textLength="107" x="263.75" y="309.3066">(1) Submit intake</text></g><!--link Provider Creds\n(Conjur Cloud) to ProvEngine--><g id="link_Provider Creds\n(Conjur Cloud)_ProvEngine"><path d="M522.52,137.2183 C505.54,177.3883 476.04,247.1983 459.55,286.2283 " fill="none" id="Provider Creds\n(Conjur Cloud)-to-ProvEngine" style="stroke:#181818;stroke-width:1.0;"/><polygon fill="#181818" points="457.6,290.8283,464.7865,284.0938,459.5454,286.2223,457.4169,280.9811,457.6,290.8283" style="stroke:#181818;stroke-width:1.0;"/><text fill="#000000" font-family="sans-serif" font-size="13" lengthAdjust="spacing" textLength="96" x="507" y="214.0566">(2) (Alternative)</text><text fill="#000000" font-family="sans-serif" font-size="13" lengthAdjust="spacing" textLength="68" x="521" y="229.3672">Load creds</text><text fill="#000000" font-family="sans-serif" font-size="13" lengthAdjust="spacing" textLength="121" x="494.5" y="244.6777">IAM Auth to Conjur</text></g><!--link Provider Creds\n(Local FIle) to ProvEngine--><g id="link_Provider Creds\n(Local FIle)_ProvEngine"><path d="M357.69,137.3483 C357.22,167.1183 359.97,212.6583 377.5,247.4883 C385.33,263.0483 398.24,276.9983 410.85,288.1083 " fill="none" id="Provider Creds\n(Local FIle)-to-ProvEngine" style="stroke:#181818;stroke-width:1.0;"/><polygon fill="#181818" points="414.33,291.0783,410.0999,282.1841,410.5337,287.8243,404.8935,288.2582,414.33,291.0783" style="stroke:#181818;stroke-width:1.0;"/><text fill="#000000" font-family="sans-serif" font-size="13" lengthAdjust="spacing" textLength="88" x="378.5" y="229.0566">(2) Load creds</text></g><!--link ProvEngine to Provider--><g id="link_ProvEngine_Provider"><path d="M388.79,336.5983 C367.13,347.0983 344.87,362.4183 332.5,383.9783 C322.11,402.0983 325.56,411.2783 332.5,430.9783 C335.61,439.8083 340.91,448.2483 346.72,455.6683 " fill="none" id="ProvEngine-to-Provider" style="stroke:#181818;stroke-width:1.0;"/><polygon fill="#181818" points="349.84,459.4683,347.2138,449.976,346.6645,455.6062,341.0343,455.0569,349.84,459.4683" style="stroke:#181818;stroke-width:1.0;"/><text fill="#000000" font-family="sans-serif" font-size="13" lengthAdjust="spacing" textLength="70" x="333.5" y="405.0466">(3) Request</text><text fill="#000000" font-family="sans-serif" font-size="13" lengthAdjust="spacing" textLength="57" x="340" y="420.3572">Resource</text></g><!--reverse link ProvEngine to Provider--><g id="link_ProvEngine_Provider"><path d="M439.88,345.3483 C433.09,368.9383 422.14,402.9583 408.5,430.9783 C403.57,441.0983 397.04,451.6183 391.02,460.5483 " fill="none" id="ProvEngine-backto-Provider" style="stroke:#181818;stroke-width:1.0;"/><polygon fill="#181818" points="441.18,340.7383,434.8822,348.3105,439.8196,345.5497,442.5805,350.4871,441.18,340.7383" style="stroke:#181818;stroke-width:1.0;"/><text fill="#000000" font-family="sans-serif" font-size="13" lengthAdjust="spacing" textLength="50" x="431" y="397.5466">(4) Send</text><text fill="#000000" font-family="sans-serif" font-size="13" lengthAdjust="spacing" textLength="57" x="427.5" y="412.8572">Resource</text><text fill="#000000" font-family="sans-serif" font-size="13" lengthAdjust="spacing" textLength="44" x="434" y="428.1677">Details</text></g><!--link ProvEngine to PASVault--><g id="link_ProvEngine_PASVault"><path d="M463.89,339.3583 C472.97,352.2183 484.26,368.7383 493.5,383.9783 C507.7,407.3883 522.24,434.9183 532.49,455.0283 " fill="none" id="ProvEngine-to-PASVault" style="stroke:#181818;stroke-width:1.0;"/><polygon fill="#181818" points="534.71,459.4083,534.1874,449.5733,532.4397,454.9534,527.0596,453.2057,534.71,459.4083" style="stroke:#181818;stroke-width:1.0;"/><text fill="#000000" font-family="sans-serif" font-size="13" lengthAdjust="spacing" textLength="45" x="523" y="405.0466">(5) Add</text><text fill="#000000" font-family="sans-serif" font-size="13" lengthAdjust="spacing" textLength="52" x="519.5" y="420.3572">Account</text></g><!--SRC=[ZP91J-Cm48Nl_XMZd1g979PTBXL2iYWhLMfNgAdWG7lmsaDZrlLadN51Glntd2ObhH0IjndF-zxBn6RB3c59v9eA3PHs6vtYLCcWAykeEGQ4YLMReBP2QQO0igudk0FLG9PAI3KwgZ5aGlIZ8jXDnSKLF1oSrs8eZyQtWNOtVcCzhiSm-f536VzkBOFrhFwXE9x3PH7heaEimG3N0KspygDhyaynjOwYoLkRynn6qZ46hzZkC5_v6Ia3kjDFvHnav0gOe4E_5pCZhHpydZeyX0okfmw5eMT_sAxrQFK_SrZW_uWDh_m26uf1VzflpvrYlz8lGMy6PkKdoCgwBpDbUQUYunQ-o46Qn4gjANeMugaX3pFS94Tu5P0ThYGRGpPTblFsQjEgDo_Zb1fsLkCVUiwpioGTmbhn_XCRczowinwolgWeDWYghWTiBqpFOtpIziWIGr2F5BP7UdCaDXzAUL_scdx5lKQMq3NYxHq0]--></g></svg>